<svg xmlns="http://www.w3.org/2000/svg" width="16" height="16" viewBox="0 0 16 16"><path d="M12.453,11.247l1.792,1.784A7.945,7.945,0,0,0,16,8.75H13.47A5.484,5.484,0,0,1,12.453,11.247Z"/><path d="M8,0A8.021,8.021,0,0,0,2.947,1.784L4.739,3.568A5.52,5.52,0,0,1,13.468,7.25H16A8.022,8.022,0,0,0,8,0Z"/><path d="M3.655,4.61,1.87,2.833A7.951,7.951,0,0,0,0,7.25H2.532A5.465,5.465,0,0,1,3.655,4.61Z"/><path d="M8,16a8.022,8.022,0,0,0,5.191-1.9l-1.785-1.777A5.522,5.522,0,0,1,2.533,8.75H0A8.021,8.021,0,0,0,8,16Z"/></svg>