<svg viewBox="0 0 16 16" xmlns="http://www.w3.org/2000/svg"><path d="m10.47 1.93v-.69a1.23 1.23 0 0 0 -1.24-1.24h-8a1.23 1.23 0 0 0 -1.23 1.24v.69a1.24 1.24 0 0 0 1.23 1.24h8a1.24 1.24 0 0 0 1.24-1.24z"/><path d="m13.32 6.18v-.69a1.24 1.24 0 0 0 -1.23-1.24h-10.85a1.24 1.24 0 0 0 -1.24 1.24v.69a1.23 1.23 0 0 0 1.24 1.24h10.85a1.23 1.23 0 0 0 1.23-1.24z"/><path d="m16 14.76v-.69a1.23 1.23 0 0 0 -1.24-1.23h-13.52a1.23 1.23 0 0 0 -1.24 1.23v.69a1.23 1.23 0 0 0 1.24 1.24h13.52a1.23 1.23 0 0 0 1.24-1.24z"/><path d="m9.32 10.45v-.69a1.24 1.24 0 0 0 -1.24-1.24h-6.85a1.23 1.23 0 0 0 -1.23 1.24v.69a1.24 1.24 0 0 0 1.23 1.24h6.85a1.25 1.25 0 0 0 1.24-1.24z"/></svg>