<svg viewBox="0 0 16 16" xmlns="http://www.w3.org/2000/svg"><path d="m14.07 5.53h.69a1.23 1.23 0 0 1 1.24 1.24v8a1.23 1.23 0 0 1 -1.24 1.23h-.69a1.24 1.24 0 0 1 -1.24-1.23v-8a1.24 1.24 0 0 1 1.24-1.24z"/><path d="m9.82 2.68h.69a1.24 1.24 0 0 1 1.24 1.23v10.85a1.24 1.24 0 0 1 -1.24 1.24h-.69a1.23 1.23 0 0 1 -1.24-1.24v-10.85a1.23 1.23 0 0 1 1.24-1.23z"/><path d="m1.24 0h.69a1.23 1.23 0 0 1 1.23 1.24v13.52a1.23 1.23 0 0 1 -1.23 1.24h-.69a1.23 1.23 0 0 1 -1.24-1.24v-13.52a1.23 1.23 0 0 1 1.24-1.24z"/><path d="m5.55 6.68h.69a1.24 1.24 0 0 1 1.24 1.24v6.85a1.23 1.23 0 0 1 -1.24 1.23h-.69a1.24 1.24 0 0 1 -1.24-1.23v-6.85a1.25 1.25 0 0 1 1.24-1.24z"/></svg>